Coordinates
version=1
nRows=14
nColumns=40
inDegrees=yes

Units are S.I. units (second, meters, Newtons, ...)
If the header above contains a line with 'inDegrees', this indicates whether rotational values are in degrees (yes) or radians (no).

endheader
time	pelvis_tilt	pelvis_list	pelvis_rotation	pelvis_tx	pelvis_ty	pelvis_tz	hip_flexion_r	hip_adduction_r	hip_rotation_r	knee_angle_r	knee_angle_r_beta	ankle_angle_r	subtalar_angle_r	mtp_angle_r	hip_flexion_l	hip_adduction_l	hip_rotation_l	knee_angle_l	knee_angle_l_beta	ankle_angle_l	subtalar_angle_l	mtp_angle_l	lumbar_extension	lumbar_bending	lumbar_rotation	arm_flex_r	arm_add_r	arm_rot_r	elbow_flex_r	pro_sup_r	wrist_flex_r	wrist_dev_r	arm_flex_l	arm_add_l	arm_rot_l	elbow_flex_l	pro_sup_l	wrist_flex_l	wrist_dev_l
      2.32000000	    -29.48832223	    -11.80743616	     15.66687164	     -1.86982161	      0.91978051	      0.26771482	     85.07928846	    -11.17283151	     -9.27269346	     74.00822882	      1.29168727	      9.89540059	      0.00000000	      0.00000000	      1.68637214	    -13.31809541	     12.54023766	     19.60915837	      0.34224438	    -20.44682390	      0.00000000	      0.00000000	     -0.10811982	     15.61084301	    -17.03121490	    -66.80499854	    -15.63928431	    -31.95872142	     64.22882606	     88.14284373	      0.00000000	      0.00000000	     71.25084545	    -16.09859389	      5.55702777	    116.76309326	     87.61011979	      0.00000000	      0.00000000
      2.32500000	    -29.04878128	    -11.50464862	     14.91589897	     -1.83667229	      0.92298986	      0.26736547	     83.54727128	    -10.83362991	    -10.03393320	     68.96979089	      1.20374994	      9.49748308	      0.00000000	      0.00000000	      0.32833731	    -13.04440421	     12.25372275	     20.96294550	      0.36587242	    -22.44796836	      0.00000000	      0.00000000	     -0.66494964	     15.78000649	    -15.88653201	    -66.07249860	    -14.97745095	    -33.13213205	     64.23348393	     88.12598127	      0.00000000	      0.00000000	     69.29775231	    -16.63416995	      6.11990387	    118.19656529	     87.64868770	      0.00000000	      0.00000000
      2.33000000	    -28.47496001	    -11.00126146	     14.20674658	     -1.80348623	      0.92640396	      0.26703729	     81.67993836	    -10.52482262	    -10.80043829	     63.93459206	      1.11586914	      8.83172595	      0.00000000	      0.00000000	     -0.93418006	    -12.47726731	     12.01461114	     22.90635814	      0.39979137	    -23.71146265	      0.00000000	      0.00000000	     -1.43822579	     15.72185979	    -14.78562309	    -64.99342330	    -14.53236759	    -33.95344576	     64.23093581	     88.10023515	      0.00000000	      0.00000000	     66.96137268	    -17.23350791	      6.83259359	    119.31874125	     87.68538957	      0.00000000	      0.00000000
      2.33500000	    -27.77850102	    -10.37438112	     13.52062580	     -1.77017724	      0.92997705	      0.26676204	     79.50239600	    -10.18108006	    -11.55948371	     58.93265413	      1.02856885	      7.97166252	      0.00000000	      0.00000000	     -2.09527771	    -11.70738555	     11.76165744	     25.38612749	      0.44307151	    -24.31350683	      0.00000000	      0.00000000	     -2.38519649	     15.51966382	    -13.73847433	    -63.60042851	    -14.30273275	    -34.45138320	     64.25687530	     88.08452231	      0.00000000	      0.00000000	     64.23952332	    -17.89357386	      7.64348891	    120.12425451	     87.73340855	      0.00000000	      0.00000000
      2.34000000	    -27.19693402	     -9.20589438	     13.05258593	     -1.73700495	      0.93345488	      0.26600447	     77.36448905	    -10.24283268	    -11.83033082	     54.20687104	      0.94608838	      7.10886375	      0.00000000	      0.00000000	     -3.03245492	    -10.16171040	     12.17498782	     28.14028482	      0.49114062	    -24.74943603	      0.00000000	      0.00000000	     -3.25795820	     14.68923677	    -13.09249029	    -61.90342968	    -14.23083821	    -34.69090234	     64.35706916	     88.05538227	      0.00000000	      0.00000000	     61.07879819	    -18.64724990	      8.40758839	    120.59602266	     87.78114102	      0.00000000	      0.00000000
      2.34500000	    -26.09972688	     -8.92256481	     12.17501011	     -1.70342725	      0.93712989	      0.26655452	     74.50064167	     -9.38450825	    -13.08054472	     49.41358659	      0.86242978	      5.68473205	      0.00000000	      0.00000000	     -3.93030240	     -9.81382346	     10.96241615	     31.89763064	      0.55671868	    -24.23093327	      0.00000000	      0.00000000	     -4.63695208	     14.81636156	    -11.83533744	    -60.06447196	    -14.47176866	    -34.48100243	     64.55225073	     88.03882584	      0.00000000	      0.00000000	     57.84845919	    -19.31844770	      9.44575771	    120.52275473	     87.80988679	      0.00000000	      0.00000000
      2.35000000	    -25.24850472	     -7.64922948	     11.60281368	     -1.67019365	      0.94053246	      0.26639932	     71.98720145	     -9.31042073	    -13.34813979	     45.27797245	      0.79024970	      4.47407201	      0.00000000	      0.00000000	     -4.61562359	     -8.15208333	     10.82433706	     35.62619477	      0.62179440	    -24.13027994	      0.00000000	      0.00000000	     -5.85421596	     13.81255919	    -11.21561552	    -57.87900511	    -14.74717405	    -34.09018228	     64.82626384	     88.04389321	      0.00000000	      0.00000000	     54.26666822	    -20.21485980	     10.29879098	    120.08389797	     87.85396098	      0.00000000	      0.00000000
      2.35500000	    -24.31364568	     -6.48860188	     10.92262666	     -1.63688801	      0.94362274	      0.26644212	     69.41211265	     -9.12386087	    -13.71541209	     41.62687838	      0.72652609	      3.28656961	      0.00000000	      0.00000000	     -5.12471399	     -6.63209171	     10.26934693	     39.72714898	      0.69336955	    -23.90005484	      0.00000000	      0.00000000	     -7.11990832	     12.89722923	    -10.53492434	    -55.59175954	    -15.17757292	    -33.47007513	     65.28824528	     88.04505405	      0.00000000	      0.00000000	     50.51138231	    -20.96677946	     11.03906931	    119.13118881	     87.87345135	      0.00000000	      0.00000000
      2.36000000	    -23.33958790	     -5.60614802	     10.10797841	     -1.60383594	      0.94650122	      0.26700720	     66.80583192	     -8.67675624	    -14.19144716	     38.34685774	      0.66927893	      1.94617805	      0.00000000	      0.00000000	     -5.35786157	     -5.46392687	      9.33191785	     44.21703259	      0.77173280	    -23.47443447	      0.00000000	      0.00000000	     -8.41256838	     12.20470096	     -9.81271526	    -53.07363473	    -15.84201340	    -32.53893359	     65.86009229	     88.04009354	      0.00000000	      0.00000000	     46.68358642	    -21.76600622	     11.82880667	    117.70343898	     87.88713825	      0.00000000	      0.00000000
      2.36500000	    -22.44831299	     -4.93903561	      9.21431163	     -1.57084298	      0.94889474	      0.26785080	     64.31530163	     -8.10645796	    -14.77312453	     35.55641619	      0.62057653	      0.71653009	      0.00000000	      0.00000000	     -5.28290743	     -4.56218942	      8.17928753	     48.88357943	      0.85317941	    -23.07348463	      0.00000000	      0.00000000	     -9.55205130	     11.68603139	     -9.05836521	    -50.44824574	    -16.57833524	    -31.44773205	     66.55564104	     88.02485009	      0.00000000	      0.00000000	     42.69203666	    -22.46160564	     12.41918847	    115.82526529	     87.88713121	      0.00000000	      0.00000000
      2.37000000	    -21.84024442	     -5.55611247	      8.24461129	     -1.53786629	      0.95046583	      0.26932063	     61.88741755	     -6.69138249	    -16.30674599	     32.67539539	      0.57029323	     -0.65816655	      0.00000000	      0.00000000	     -4.45278111	     -5.26560388	      6.42902417	     54.00233714	      0.94251859	    -22.37062415	      0.00000000	      0.00000000	    -10.15876614	     12.46120815	     -8.22616093	    -47.73459888	    -17.65585014	    -30.17340369	     67.35596187	     87.95393028	      0.00000000	      0.00000000	     38.33003623	    -22.85792500	     12.54296554	    113.58226547	     87.87945842	      0.00000000	      0.00000000
      2.37500000	    -21.16532839	     -5.13630435	      7.46420815	     -1.50535089	      0.95195852	      0.27008304	     59.72316312	     -6.19023256	    -16.91829394	     31.01041439	      0.54123383	     -1.52923262	      0.00000000	      0.00000000	     -3.75288133	     -4.69447023	      5.40834585	     58.91803060	      1.02831362	    -22.00344682	      0.00000000	      0.00000000	    -10.97244588	     12.12741820	     -7.78984228	    -44.67786557	    -18.56615235	    -28.76837559	     68.18562391	     87.93533233	      0.00000000	      0.00000000	     34.15762092	    -23.28924873	     12.57302686	    110.90673776	     87.86882222	      0.00000000	      0.00000000
      2.38000000	    -20.33238212	     -4.14606211	      6.54293027	     -1.47260540	      0.95322159	      0.27057944	     57.69298278	     -6.18695210	    -17.38155937	     30.53401854	      0.53291916	     -1.68325717	      0.00000000	      0.00000000	     -3.33569394	     -3.46769014	      4.34354496	     63.45196989	      1.10744579	    -22.07241867	      0.00000000	      0.00000000	    -11.99110832	     11.17475453	     -7.03054815	    -41.64814944	    -18.94707296	    -27.89329177	     69.18681399	     87.99244768	      0.00000000	      0.00000000	     30.35143459	    -23.32973693	     12.70814590	    107.50326318	     87.82744443	      0.00000000	      0.00000000
      2.38500000	    -20.06191124	     -4.33422150	      5.48991345	     -1.44073573	      0.95365241	      0.27239265	     55.85696406	     -4.95421937	    -17.37535428	     29.26879242	      0.51083680	     -2.56714840	      0.00000000	      0.00000000	     -1.85977159	     -3.69461517	      3.08811287	     68.62405898	      1.19771578	    -20.72868036	      0.00000000	      0.00000000	    -12.34074338	     11.30497904	     -6.83621367	    -37.83276950	    -20.36889423	    -25.42850001	     69.85929990	     87.91328785	      0.00000000	      0.00000000	     25.85375924	    -23.77970401	     11.86116296	    104.47710842	     87.83234099	      0.00000000	      0.00000000
